#!OML:ASF F:\VICON\USERDATA\INSTALL\rory3\rory3.ASF
:FULLY-SPECIFIED
:DEGREES
16
root 1.04927 17.8178 -16.2838 5.86455 -0.833072 -0.430861
lowerback 4.44266 -0.412276 -1.23207
upperback -0.975276 -0.537669 2.45999
thorax -3.46385 -0.216416 3.27328
lowerneck -17.9216 -3.95925 -9.36738
upperneck 16.018 -4.22061 6.53256
head 8.26534 -1.92148 3.20815
rclavicle 6.75868e-015 -3.81667e-014
rhumerus -32.0905 -8.74093 -81.0213
rradius 30.4973
rwrist 4.59629
rhand -11.9167 11.4447
rfingers 7.12502
rthumb 14.1372 -18.0543
lclavicle 6.75868e-015 -3.81667e-014
lhumerus -29.8906 9.45212 86.1897
lradius 26.2912
lwrist -13.171
lhand -11.0377 28.6348
lfingers 7.12502
lthumb 14.9842 58.0727
rfemur -9.04675 3.72403 21.7394
rtibia 20.1267
rfoot -10.8179 -13.5291
rtoes 3.07008
lfemur -9.3266 -3.14347 -20.2465
ltibia 19.868
lfoot -13.3253 5.24293
ltoes 2.45888
17
root 1.05053 17.8187 -16.2843 5.88326 -0.841502 -0.41067
lowerback 4.35933 -0.394507 -1.23547
upperback -0.890731 -0.515726 2.44592
thorax -3.33089 -0.208161 3.25683
lowerneck -18.1284 -3.97447 -9.42586
upperneck 16.1879 -4.2399 6.6654
head 8.36469 -1.91825 3.26106
rclavicle 2.28602e-015 1.51076e-014
rhumerus -31.9652 -8.92662 -80.9767
rradius 30.5597
rwrist 4.92048
rhand -11.4853 11.4522
rfingers 7.12502
rthumb 14.5529 -18.0174
lclavicle 2.28602e-015 1.51076e-014
lhumerus -29.694 9.41894 86.2351
lradius 26.1033
lwrist -13.1035
lhand -11.658 28.2608
lfingers 7.12502
lthumb 14.3865 57.7422
rfemur -9.08908 3.67252 21.7057
rtibia 20.1386
rfoot -10.7822 -13.4986
rtoes 2.4419
lfemur -9.3698 -3.15913 -20.2789
ltibia 19.874
lfoot -13.2948 5.26893
ltoes 1.84745
18
root 1.05299 17.8188 -16.2849 5.98867 -0.724215 -0.412703
lowerback 4.26494 -0.410515 -1.18223
upperback -0.903772 -0.534229 2.43721
thorax -3.29044 -0.218901 3.21786
lowerneck -18.1905 -3.96067 -9.41501
upperneck 16.3248 -4.23205 6.70616
head 8.42167 -1.9095 3.27542
rclavicle -2.83268e-015 -2.38542e-015
rhumerus -32.0255 -9.05837 -80.8948
rradius 30.7367
rwrist 5.48452
rhand -11.232 10.6843
rfingers 7.12502
rthumb 14.797 -18.7675
lclavicle -2.83268e-015 -2.38542e-015
lhumerus -29.6787 9.35113 86.2744
lradius 26.0252
lwrist -13.0209
lhand -12.26 27.6699
lfingers 7.12502
lthumb 13.8065 57.1918
rfemur -9.20267 3.60087 21.6998
rtibia 20.1268
rfoot -10.662 -13.4977
rtoes 1.96338
lfemur -9.58386 -3.28113 -20.2612
ltibia 19.891
lfoot -13.225 5.27196
ltoes 1.99586
19
root 1.05264 17.8178 -16.2876 6.02672 -0.6743 -0.425168
lowerback 4.35664 -0.434321 -1.17403
upperback -1.01436 -0.563195 2.46145
thorax -3.45456 -0.230043 3.24308
lowerneck -17.9736 -3.92167 -9.41046
upperneck 16.3778 -4.19249 6.65634
head 8.39677 -1.89994 3.26484
rclavicle 8.79622e-015 7.95139e-015
rhumerus -32.2628 -8.88198 -80.855
rradius 30.9165
rwrist 6.14225
rhand -12.2762 10.7664
rfingers 7.12502
rthumb 13.7908 -18.7565
lclavicle 8.79622e-015 7.95139e-015
lhumerus -29.9631 9.39419 86.2552
lradius 26.1651
lwrist -12.9832
lhand -12.3178 27.4065
lfingers 7.12502
lthumb 13.7508 56.9321
rfemur -9.26923 3.64485 21.7076
rtibia 20.1307
rfoot -10.727 -13.5445
rtoes 2.53965
lfemur -9.64774 -3.33938 -20.234
ltibia 19.8715
lfoot -13.165 5.29018
ltoes 2.42659
20
root 1.05209 17.8183 -16.289 6.04289 -0.77068 -0.430552
lowerback 4.3877 -0.423386 -1.2001
upperback -1.02666 -0.549027 2.48768
thorax -3.48532 -0.221642 3.28466
lowerneck -17.8819 -3.9468 -9.42937
upperneck 16.3986 -4.22355 6.61683
head 8.39002 -1.92161 3.25115
rclavicle -7.85199e-015 -3.26007e-014
rhumerus -32.2274 -8.79258 -80.8547
rradius 30.9149
rwrist 6.58583
rhand -12.9383 12.3079
rfingers 7.12502
rthumb 13.1527 -17.2573
lclavicle -7.85199e-015 -3.26007e-014
lhumerus -30.0328 9.52861 86.2285
lradius 26.1599
lwrist -13.0492
lhand -12.4506 27.1566
lfingers 7.12502
lthumb 13.6227 56.6908
rfemur -9.32252 3.67138 21.7021
rtibia 20.1564
rfoot -10.7911 -13.5235
rtoes 2.77961
lfemur -9.60121 -3.20059 -20.2416
ltibia 19.8339
lfoot -13.1409 5.26172
ltoes 2.55565
21
root 1.05182 17.8207 -16.2868 6.07145 -0.875492 -0.416779
lowerback 4.32569 -0.373401 -1.19714
upperback -0.952469 -0.484418 2.44986
thorax -3.37809 -0.192042 3.23732
lowerneck -18.1197 -4.00975 -9.37716
upperneck 16.5064 -4.31244 6.64744
head 8.47547 -1.95347 3.24086
rclavicle -1.19271e-015 -9.54166e-015
rhumerus -32.0382 -8.92642 -80.9047
rradius 30.839
rwrist 6.58024
rhand -12.7122 12.9956
rfingers 7.12502
rthumb 13.3706 -16.5553
lclavicle -1.19271e-015 -9.54166e-015
lhumerus -29.8519 9.52355 86.2147
lradius 26.1014
lwrist -13.235
lhand -12.4029 27.7663
lfingers 7.12502
lthumb 13.6688 57.2974
rfemur -9.31904 3.64224 21.6851
rtibia 20.1706
rfoot -10.8107 -13.437
rtoes 2.65273
lfemur -9.61059 -3.19235 -20.2602
ltibia 19.8009
lfoot -13.1451 5.30296
ltoes 2.50349
22
root 1.05294 17.8225 -16.2839 6.07206 -0.899362 -0.431174
lowerback 4.31045 -0.351795 -1.15802
upperback -0.908772 -0.454368 2.43845
thorax -3.32658 -0.17905 3.20056
lowerneck -18.2085 -4.02575 -9.33364
upperneck 16.4839 -4.33926 6.65861
head 8.48501 -1.96039 3.23311
rclavicle -1.10325e-014 0
rhumerus -31.9183 -9.15876 -80.8575
rradius 30.7842
rwrist 6.9056
rhand -13.6535 14.7004
rfingers 7.12502
rthumb 12.4632 -14.9079
lclavicle -1.10325e-014 0
lhumerus -29.7698 9.48 86.2346
lradius 26.1247
lwrist -13.2375
lhand -12.2933 28.056
lfingers 7.12502
lthumb 13.7743 57.58
rfemur -9.26896 3.55292 21.7023
rtibia 20.1776
rfoot -10.8262 -13.2739
rtoes 3.01597
lfemur -9.54879 -3.24556 -20.252
ltibia 19.7724
lfoot -13.2037 5.36508
ltoes 2.33295
23
root 1.05326 17.8239 -16.2821 6.11234 -0.894112 -0.43235
lowerback 4.3127 -0.348738 -1.17588
upperback -0.932814 -0.44982 2.473
thorax -3.35268 -0.175509 3.24652
lowerneck -18.0298 -4.00595 -9.37297
upperneck 16.3074 -4.31043 6.65701
head 8.3924 -1.95158 3.24224
rclavicle -1.05853e-014 -1.43125e-014
rhumerus -31.9139 -9.18296 -80.7761
rradius 30.7911
rwrist 7.22719
rhand -14.6012 16.133
rfingers 7.12502
rthumb 11.5493 -13.5288
lclavicle -1.05853e-014 -1.43125e-014
lhumerus -29.8832 9.41934 86.3169
lradius 26.138
lwrist -12.9361
lhand -12.7039 27.5689
lfingers 7.12502
lthumb 13.3786 57.1194
rfemur -9.32438 3.6072 21.6922
rtibia 20.1669
rfoot -10.7741 -13.2607
rtoes 3.42181
lfemur -9.54677 -3.23583 -20.2605
ltibia 19.7845
lfoot -13.2383 5.41001
ltoes 1.82627
24
root 1.05283 17.8231 -16.2822 6.13275 -0.948893 -0.430725
lowerback 4.35092 -0.32474 -1.1816
upperback -0.970105 -0.417586 2.47177
thorax -3.41489 -0.15817 3.24708
lowerneck -17.839 -3.98946 -9.28644
upperneck 16.2103 -4.3106 6.5857
head 8.32251 -1.95626 3.20399
rclavicle -2.68359e-015 -1.90833e-014
rhumerus -32.0058 -9.15521 -80.7912
rradius 30.8173
rwrist 7.30055
rhand -14.6899 16.0633
rfingers 7.12502
rthumb 11.4638 -13.6033
lclavicle -2.68359e-015 -1.90833e-014
lhumerus -30.0122 9.30945 86.3503
lradius 26.1263
lwrist -12.7489
lhand -13.0202 27.1432
lfingers 7.12502
lthumb 13.0737 56.7135
rfemur -9.37088 3.65447 21.679
rtibia 20.1365
rfoot -10.717 -13.2865
rtoes 3.49089
lfemur -9.57081 -3.16706 -20.2656
ltibia 19.824
lfoot -13.2713 5.40092
ltoes 2.18824
25
root 1.0527 17.8201 -16.2861 6.08085 -0.963347 -0.497948
lowerback 4.44329 -0.317414 -1.09588
upperback -0.955466 -0.402902 2.47617
thorax -3.45327 -0.152227 3.20312
lowerneck -17.7581 -3.96868 -9.19015
upperneck 16.1404 -4.30852 6.5659
head 8.2818 -1.95225 3.18163
rclavicle 2.73329e-015 -4.77083e-015
rhumerus -31.979 -9.2286 -80.8038
rradius 30.7292
rwrist 7.38116
rhand -14.727 16.3124
rfingers 7.12502
rthumb 11.4281 -13.3562
lclavicle 2.73329e-015 -4.77083e-015
lhumerus -30.0366 9.34217 86.2922
lradius 26.166
lwrist -12.9139
lhand -13.1723 25.7292
lfingers 7.12502
lthumb 12.9271 55.3088
rfemur -9.31981 3.65937 21.7568
rtibia 20.1042
rfoot -10.674 -13.3158
rtoes 3.67784
lfemur -9.51662 -3.06776 -20.1972
ltibia 19.8423
lfoot -13.3265 5.34306
ltoes 2.46775
26
root 1.05347 17.8175 -16.2893 6.06255 -0.887442 -0.496
lowerback 4.48782 -0.339724 -1.05392
upperback -0.892254 -0.431317 2.47063
thorax -3.41145 -0.16842 3.17557
lowerneck -17.9115 -3.96435 -9.20862
upperneck 16.1406 -4.29728 6.63509
head 8.30977 -1.93833 3.20866
rclavicle 7.25564e-015 1.82882e-014
rhumerus -31.8754 -9.20492 -80.8716
rradius 30.709
rwrist 7.09845
rhand -14.0309 15.6321
rfingers 7.12502
rthumb 12.0993 -13.998
lclavicle 7.25564e-015 1.82882e-014
lhumerus -29.95 9.43457 86.2445
lradius 26.1669
lwrist -13.2228
lhand -14.3677 21.2246
lfingers 7.12502
lthumb 11.7745 50.8736
rfemur -9.31136 3.59019 21.7677
rtibia 20.1051
rfoot -10.6761 -13.3198
rtoes 3.35037
lfemur -9.56203 -3.24056 -20.1767
ltibia 19.8453
lfoot -13.2765 5.36205
ltoes 2.66641
27
root 1.05405 17.8181 -16.2875 6.08932 -0.876317 -0.464878
lowerback 4.49906 -0.326488 -1.0512
upperback -0.816034 -0.415326 2.44828
thorax -3.34009 -0.162319 3.14897
lowerneck -18.2391 -4.0203 -9.22592
upperneck 16.2175 -4.35391 6.69285
head 8.3998 -1.95472 3.22224
rclavicle -2.48481e-016 -2.14687e-014
rhumerus -31.8361 -9.14705 -80.9878
rradius 30.8194
rwrist 6.3567
rhand -12.5568 13.687
rfingers 7.12502
rthumb 13.5204 -15.8541
lclavicle -2.48481e-016 -2.14687e-014
lhumerus -29.7956 9.36052 86.2723
lradius 26.1648
lwrist -13.1845
lhand -12.7074 28.4243
lfingers 7.12502
lthumb 13.3752 57.9749
rfemur -9.33633 3.55474 21.7291
rtibia 20.113
rfoot -10.7761 -13.3233
rtoes 3.2985
lfemur -9.64513 -3.36169 -20.2087
ltibia 19.8409
lfoot -13.2422 5.47072
ltoes 2.69228
28
root 1.0539 17.8176 -16.2865 6.03258 -0.948246 -0.467611
lowerback 4.64855 -0.287697 -1.026
upperback -0.78353 -0.363192 2.42008
thorax -3.39426 -0.136775 3.10306
lowerneck -18.311 -4.05402 -9.14421
upperneck 16.1986 -4.40301 6.6338
head 8.40691 -1.97731 3.18133
rclavicle 2.23633e-015 1.66979e-014
rhumerus -31.7857 -9.17189 -81.0522
rradius 30.7558
rwrist 5.82175
rhand -11.6794 12.339
rfingers 7.12502
rthumb 14.3659 -17.1439
lclavicle 2.23633e-015 1.66979e-014
lhumerus -29.7494 9.25714 86.2652
lradius 26.1949
lwrist -13.0658
lhand -12.2059 31.7917
lfingers 7.12502
lthumb 13.8586 61.31
rfemur -9.28423 3.61336 21.7229
rtibia 20.117
rfoot -10.7255 -13.2857
rtoes 3.3216
lfemur -9.55862 -3.29464 -20.2261
ltibia 19.795
lfoot -13.2259 5.52972
ltoes 2.45052
